<svg xmlns="http://www.w3.org/2000/svg" width="1280" height="640" viewBox="0 0 1280 640">
  <style>
    @import url('https://fonts.googleapis.com/css2?family=Patrick+Hand&amp;family=Caveat:wght@600&amp;display=swap');
    .hand  { font-family: 'Patrick Hand', 'Comic Sans MS', 'Segoe Print', cursive; fill: #2b2b2b; }
    .title { font-family: 'Caveat', 'Patrick Hand', 'Comic Sans MS', cursive; font-weight: 600; fill: #2b2b2b; }
    .owner { font-size: 34px; fill: #7a746a; }
    .desc  { font-size: 34px; }
    .meta  { font-size: 30px; }
  </style>

  <rect width="1280" height="640" fill="#fdfaf3" />

  <!-- sketchy double border -->
  <g stroke="#2b2b2b" stroke-width="3" fill="none" stroke-linecap="round">
    <path d="M 45.0 45.0 Q 86.9 43.7 124.1 48.1 Q 164.7 44.2 202.9 44.9 Q 243.4 43.1 285.8 43.4 Q 324.5 47.2 362.3 45.3 Q 398.7 44.2 442.6 44.5 Q 481.4 43.4 523.8 45.2 Q 559.4 45.0 598.2 45.1 Q 639.8 44.3 679.7 47.2 Q 717.4 42.8 760.4 42.0 Q 800.0 41.6 837.3 48.3 Q 874.8 42.1 917.3 45.0 Q 957.6 46.2 997.0 41.9 Q 1035.4 43.2 1076.4 46.6 Q 1118.1 42.5 1157.2 45.2 Q 1192.4 46.8 1235.0 45.0" />
    <path d="M 1235.0 45.0 Q 1235.5 84.1 1233.8 121.2 Q 1236.7 160.5 1233.8 200.3 Q 1235.8 239.8 1236.7 277.2 Q 1232.2 320.8 1236.5 358.1 Q 1237.5 395.7 1235.9 436.4 Q 1236.4 477.9 1235.7 513.8 Q 1238.4 557.9 1235.0 595.0" />
    <path d="M 1235.0 595.0 Q 1198.4 594.0 1155.7 598.4 Q 1113.9 592.4 1077.3 596.8 Q 1039.2 596.5 995.5 597.8 Q 956.1 595.7 919.2 597.3 Q 879.8 596.0 835.4 596.0 Q 796.0 597.4 757.7 594.9 Q 722.4 597.8 678.4 591.6 Q 638.2 592.2 596.9 593.7 Q 557.2 594.6 523.3 592.9 Q 482.8 593.4 439.3 596.6 Q 400.2 595.5 363.4 594.0 Q 319.5 597.4 281.3 591.9 Q 241.2 592.8 204.7 595.2 Q 166.8 598.0 122.5 598.5 Q 87.8 594.1 45.0 595.0" />
    <path d="M 45.0 595.0 Q 42.6 554.2 47.5 515.4 Q 42.3 475.9 47.5 437.2 Q 44.8 395.8 45.5 361.8 Q 48.0 319.8 42.5 284.2 Q 45.0 241.4 44.0 200.3 Q 46.5 165.6 46.9 126.5 Q 47.4 85.8 45.0 45.0" />
    <path d="M 45.7 45.4 Q 82.9 43.3 122.6 48.1 Q 163.6 47.0 201.8 42.8 Q 242.7 47.5 280.9 45.7 Q 326.0 44.5 361.5 42.6 Q 399.2 43.2 442.8 43.2 Q 484.6 43.9 523.0 46.3 Q 561.7 43.4 600.4 45.2 Q 641.1 45.0 680.7 44.9 Q 718.5 44.9 756.0 42.0 Q 795.2 44.6 841.1 45.7 Q 877.0 47.6 918.3 46.2 Q 960.5 43.2 998.5 46.8 Q 1034.9 45.1 1075.7 42.2 Q 1116.9 44.3 1158.7 41.9 Q 1191.6 44.3 1234.5 44.3" />
    <path d="M 1235.4 45.0 Q 1237.1 86.7 1233.7 121.2 Q 1238.7 162.7 1232.3 201.2 Q 1236.0 238.6 1237.6 278.2 Q 1233.2 322.7 1237.6 360.1 Q 1236.6 400.0 1237.3 435.1 Q 1233.2 478.8 1235.0 514.7 Q 1235.4 558.4 1234.6 595.0" />
    <path d="M 1235.0 594.8 Q 1194.4 596.5 1152.5 597.7 Q 1113.6 592.3 1078.8 592.5 Q 1036.7 596.8 996.5 593.4 Q 959.8 592.6 920.6 592.9 Q 875.3 593.9 836.4 595.2 Q 799.2 595.1 762.4 598.2 Q 722.0 595.8 676.7 593.9 Q 640.5 592.0 602.8 592.0 Q 559.3 598.6 518.7 594.1 Q 483.4 595.0 440.0 596.7 Q 399.7 598.3 363.6 595.6 Q 320.5 595.9 286.5 596.3 Q 242.8 595.4 200.8 593.5 Q 164.2 597.9 127.1 596.1 Q 83.5 596.0 45.3 595.7" />
    <path d="M 44.5 594.5 Q 45.8 557.0 43.5 518.9 Q 47.9 478.4 44.4 438.3 Q 45.4 399.0 44.6 357.1 Q 48.1 317.3 45.3 281.5 Q 42.3 244.0 44.8 202.7 Q 43.8 166.0 44.5 120.4 Q 47.1 81.0 45.0 44.9" />
  </g>

  <!-- corner doodle -->
  <g stroke="#d94f30" stroke-width="3" fill="none" stroke-linecap="round">
    <path d="M 1080.0 90.0 Q 1104.1 90.8 1124.6 88.2 Q 1149.1 90.3 1170.0 90.0" />
  </g>

  <text x="110" y="150" class="hand owner">larscornelissen /</text>

  <text x="110" y="250" class="title" font-size="96">readme-og</text>
  <g stroke="#d94f30" stroke-width="5" fill="none" stroke-linecap="round">
    <path d="M 110 272 Q 338.9612493881583 276.9994015833363 559.28 272.86477473564446" />
  </g>

  <text x="110" y="340" class="hand desc">Hand-drawn style OG images for your GitHub repos</text>

  
    <g stroke="#f1e05a" stroke-width="3" fill="#f1e05a" fill-opacity="0.35">
      <path d="M 138.1 521.8 C 139.0185291550588 528.6822281447545, 132.0380513517026 536.9293966651894, 124.0 535.5 C 116.96012832989655 535.5215249806643, 111.07664408464916 530.4354045624219, 109.2 521.0 C 111.28246921184473 513.0408497634038, 116.63343368351198 508.1152517092414, 124.4 508.4 C 130.79172899320983 507.20562650077045, 137.1593988512177 513.3488270640067, 138.1 521.8" />
    </g>
    <text x="152" y="530" class="hand meta">JavaScript</text>

    <g stroke="#2b2b2b" stroke-width="2.5">
      <path d="M 385.4 504.0 L 391.2 514.9 L 402.8 515.9 L 393.2 521.9 L 395.8 534.5 L 385.6 528.3 L 376.7 534.9 L 377.8 522.6 L 369.5 515.5 L 382.3 512.8 Z" fill="#f5c542" />
    </g>
    <text x="414" y="530" class="hand meta">128 stars</text>
</svg>
