<svg xmlns="http://www.w3.org/2000/svg" width="1280" height="640" viewBox="0 0 1280 640">
  <style>
    @import url('https://fonts.googleapis.com/css2?family=Patrick+Hand&amp;family=Caveat:wght@600&amp;display=swap');
    .hand  { font-family: 'Patrick Hand', 'Comic Sans MS', 'Segoe Print', cursive; fill: #2b2b2b; }
    .title { font-family: 'Caveat', 'Patrick Hand', 'Comic Sans MS', cursive; font-weight: 600; fill: #2b2b2b; }
    .owner { font-size: 34px; fill: #7a746a; }
    .desc  { font-size: 34px; }
    .meta  { font-size: 30px; }
  </style>

  <rect width="1280" height="640" fill="#fdfaf3" />

  <!-- sketchy double border -->
  <g stroke="#2b2b2b" stroke-width="3" fill="none" stroke-linecap="round">
    <path d="M 45.0 45.0 Q 87.2 42.8 125.8 45.0 Q 160.7 41.6 202.8 45.0 Q 241.5 48.3 283.1 47.9 Q 320.4 48.2 365.4 45.2 Q 399.8 41.9 438.2 42.8 Q 483.3 46.4 519.0 46.5 Q 558.3 42.5 597.9 42.6 Q 638.2 48.0 682.5 48.0 Q 719.6 48.2 758.7 42.5 Q 800.7 41.7 838.6 43.8 Q 876.7 43.2 920.6 42.6 Q 955.9 45.0 995.3 47.5 Q 1036.9 41.7 1079.6 47.7 Q 1116.8 46.2 1156.1 43.8 Q 1196.1 45.9 1235.0 45.0" />
    <path d="M 1235.0 45.0 Q 1234.8 86.6 1235.4 124.8 Q 1238.0 164.1 1233.6 203.9 Q 1231.9 242.4 1233.7 282.8 Q 1236.9 321.7 1236.5 357.5 Q 1238.4 396.0 1235.2 435.2 Q 1236.8 474.8 1238.0 514.1 Q 1238.1 555.1 1235.0 595.0" />
    <path d="M 1235.0 595.0 Q 1195.4 594.7 1153.5 594.7 Q 1113.2 593.5 1077.8 595.0 Q 1034.4 595.8 998.7 592.8 Q 960.7 594.8 916.8 592.0 Q 875.6 596.0 839.5 597.5 Q 799.4 593.8 755.8 598.4 Q 721.5 598.3 677.1 595.5 Q 641.0 593.4 602.4 595.4 Q 557.6 592.7 521.3 595.3 Q 484.7 592.2 442.9 597.2 Q 401.0 597.1 365.3 594.4 Q 321.0 596.5 281.5 594.0 Q 241.9 595.0 203.0 593.6 Q 167.3 593.1 125.3 592.9 Q 86.6 597.4 45.0 595.0" />
    <path d="M 45.0 595.0 Q 42.0 558.2 41.9 514.7 Q 44.1 474.7 41.6 436.3 Q 42.9 401.4 42.6 359.7 Q 43.3 320.7 43.1 282.8 Q 46.4 242.8 44.0 199.6 Q 47.1 161.3 48.3 125.0 Q 45.2 83.6 45.0 45.0" />
    <path d="M 45.0 44.6 Q 82.4 46.9 123.2 42.6 Q 161.2 46.9 206.2 47.6 Q 246.7 47.2 281.9 45.2 Q 322.8 41.7 359.1 42.1 Q 403.5 42.4 443.4 41.8 Q 478.3 47.0 521.2 41.5 Q 563.7 42.4 597.2 43.5 Q 641.4 43.3 676.0 41.2 Q 715.8 47.3 760.6 46.9 Q 801.4 44.1 836.6 46.6 Q 880.7 41.3 918.4 47.2 Q 956.4 43.0 998.2 44.9 Q 1036.0 45.6 1074.4 43.7 Q 1115.4 41.5 1153.2 47.1 Q 1194.9 43.2 1234.5 44.5" />
    <path d="M 1234.3 45.4 Q 1237.7 81.5 1236.7 122.5 Q 1231.1 165.9 1233.0 203.4 Q 1236.9 241.6 1231.2 279.5 Q 1232.9 320.5 1235.8 362.3 Q 1233.7 396.1 1234.3 434.3 Q 1232.7 474.2 1233.3 517.5 Q 1237.2 552.8 1235.1 594.7" />
    <path d="M 1235.2 595.4 Q 1195.1 595.8 1155.6 593.3 Q 1114.1 596.2 1078.0 598.3 Q 1038.4 593.3 1000.2 593.0 Q 960.3 593.2 921.1 596.2 Q 878.0 591.8 837.7 595.0 Q 798.9 596.4 758.7 593.9 Q 720.9 593.8 678.4 592.4 Q 638.4 593.9 601.5 598.0 Q 564.2 595.8 521.2 597.1 Q 483.3 596.3 443.7 596.8 Q 401.3 595.1 360.4 591.3 Q 323.4 594.2 284.3 592.7 Q 246.3 592.2 205.3 595.6 Q 162.2 594.5 121.7 591.4 Q 85.2 596.7 45.4 594.6" />
    <path d="M 45.1 595.1 Q 44.1 553.5 45.7 518.8 Q 47.5 474.0 42.4 435.3 Q 42.8 396.7 44.4 356.6 Q 47.8 322.0 41.5 278.9 Q 44.4 240.1 46.0 205.0 Q 46.8 163.9 43.3 122.2 Q 47.6 82.3 44.3 45.5" />
  </g>

  <!-- corner doodle -->
  <g stroke="#d94f30" stroke-width="3" fill="none" stroke-linecap="round">
    <path d="M 1080.0 90.0 Q 1103.9 89.5 1124.0 89.7 Q 1149.1 88.7 1170.0 90.0" />
  </g>

  <text x="110" y="150" class="hand owner">lars-cornelissen /</text>

  <text x="110" y="250" class="title" font-size="96">readme-og</text>
  <g stroke="#d94f30" stroke-width="5" fill="none" stroke-linecap="round">
    <path d="M 110 272 Q 332.70931336643173 275.4767758101225 559.28 272.19961602892727" />
  </g>

  <text x="110" y="340" class="hand desc">Hand-drawn style Open Graph / social-preview images</text>
  <text x="110" y="386" class="hand desc">for your GitHub repos - pure SVG, rendered to …</text>

  
    <g stroke="#f1e05a" stroke-width="3" fill="#f1e05a" fill-opacity="0.35">
      <path d="M 137.1 521.0 C 136.59607731504366 531.033226963396, 132.34665064190776 536.1629254186992, 124.5 537.2 C 116.40856413819566 536.1353340556379, 110.62716466188431 530.6992268960763, 109.6 522.3 C 110.15239528333768 515.7350015744727, 115.67675310696214 507.37857008189894, 123.2 508.7 C 131.80597675594763 506.9628976301756, 136.88607191853225 512.8361988158125, 137.1 521.0" />
    </g>
    <text x="152" y="530" class="hand meta">JavaScript</text>

    <g stroke="#2b2b2b" stroke-width="2.5">
      <path d="M 386.6 503.7 L 391.0 514.9 L 401.7 515.5 L 393.5 521.8 L 396.9 533.8 L 385.0 528.0 L 376.4 532.6 L 377.7 522.9 L 369.2 515.7 L 380.7 514.0 Z" fill="#f5c542" />
    </g>
    <text x="414" y="530" class="hand meta">0 stars</text>
</svg>
